<svg width="18" height="19" viewBox="0 0 18 19" fill="none" xmlns="http://www.w3.org/2000/svg">
    <path d="M0.833334 7.41732H16.6667M0.833334 7.41732V16.584C0.833334 16.805 0.921131 17.017 1.07741 17.1732C1.23369 17.3295 1.44565 17.4173 1.66667 17.4173H15.8333C16.0543 17.4173 16.2663 17.3295 16.4226 17.1732C16.5789 17.017 16.6667 16.805 16.6667 16.584V7.41732M0.833334 7.41732V3.66732C0.833334 3.4463 0.921131 3.23434 1.07741 3.07806C1.23369 2.92178 1.44565 2.83398 1.66667 2.83398H15.8333C16.0543 2.83398 16.2663 2.92178 16.4226 3.07806C16.5789 3.23434 16.6667 3.4463 16.6667 3.66732V7.41732" stroke="#10083F" stroke-width="1.66667" stroke-linejoin="round"/>
    <path d="M5.41667 12.418L7.91667 14.918L12.9167 9.91797" stroke="#10083F" stroke-width="1.66667" stroke-linecap="round" stroke-linejoin="round"/>
    <path d="M5.41667 1.58398V4.91732M12.0833 1.58398V4.91732" stroke="#10083F" stroke-width="1.66667" stroke-linecap="round"/>
</svg>
